<svg width="1600" height="900" viewBox="0 0 1600 900" fill="none" xmlns="http://www.w3.org/2000/svg">
  <rect width="1600" height="900" fill="#060606"/>
  <rect y="610" width="1600" height="290" fill="#0B0B0B"/>
  <path d="M220 650c180-90 393-135 640-135 201 0 376 30 524 90" stroke="#B88935" stroke-width="3" opacity=".5"/>
  <path d="M275 625c37-86 101-136 191-151l138-24c87-101 198-148 333-142 118 5 221 53 309 144l131 28c80 17 131 63 154 139l-109 31H392c-60 0-99-8-117-25Z" fill="#151515" stroke="#DBB96B" stroke-width="5"/>
  <path d="M621 452c72-75 159-111 262-108 98 2 185 38 261 108H621Z" fill="#070707" stroke="#D6B870" stroke-width="3"/>
  <circle cx="513" cy="640" r="77" fill="#050505" stroke="#D6B870" stroke-width="5"/>
  <circle cx="1210" cy="640" r="77" fill="#050505" stroke="#D6B870" stroke-width="5"/>
  <path d="M405 552c130-18 257-24 380-17M884 536c150 7 288 23 414 48" stroke="#F0CC78" stroke-width="7" stroke-linecap="round"/>
  <path d="M340 610h176M1122 610h250" stroke="#FFE3A1" stroke-width="8" stroke-linecap="round"/>
</svg>
